<?xml version="1.0" standalone="no"?>
<!DOCTYPE svg PUBLIC "-//W3C//DTD SVG 20010904//EN"
 "http://www.w3.org/TR/2001/REC-SVG-20010904/DTD/svg10.dtd">
<svg version="1.0" xmlns="http://www.w3.org/2000/svg"
 width="8334.000000pt" height="6250.000000pt" viewBox="0 0 8334.000000 6250.000000"
 preserveAspectRatio="xMidYMid meet">

<g transform="translate(0.000000,6250.000000) scale(0.100000,-0.100000)"
fill="#000000" stroke="none">
<path d="M66395 54574 c-822 -111 -1924 -643 -2835 -1368 -1234 -982 -2315
-2568 -3044 -4469 -261 -681 -475 -1383 -660 -2170 -39 -165 -31 -151 29 48
215 720 526 1398 956 2084 647 1032 1517 1974 2739 2967 749 608 1385 1082
2245 1674 543 373 771 540 938 688 326 288 342 490 42 547 -94 18 -274 18
-410 -1z"/>
<path d="M35800 53959 c-1311 -89 -2562 -813 -3394 -1966 -80 -112 -94 -125
-174 -176 -335 -213 -593 -595 -706 -1046 -52 -204 -61 -296 -61 -591 1 -309
16 -460 81 -780 137 -682 501 -1857 1094 -3531 l51 -146 64 -42 c81 -53 125
-71 171 -71 l36 0 -7 38 c-3 20 -63 205 -131 410 -250 749 -358 1208 -404
1719 -18 198 -8 614 18 768 76 438 224 731 510 1007 101 98 198 168 284 206
l47 21 39 -47 c244 -296 300 -691 143 -1019 -92 -193 -224 -337 -399 -435 -29
-17 -51 -32 -50 -34 8 -7 364 59 497 92 336 83 566 198 739 367 142 140 230
309 272 528 41 205 37 404 -17 849 -34 283 -36 558 -5 731 25 138 76 286 131
378 l40 68 133 36 c260 71 324 81 533 81 220 1 267 -8 411 -79 66 -32 113 -65
166 -114 128 -119 210 -259 357 -605 40 -93 87 -199 106 -235 93 -185 273
-398 445 -527 97 -72 258 -159 375 -202 423 -155 928 -96 1308 155 37 24 67
46 67 48 0 2 -44 48 -99 102 -112 112 -183 212 -253 359 -42 88 -98 266 -98
311 0 8 17 -7 39 -34 71 -90 210 -164 371 -197 41 -8 145 -22 230 -31 185 -19
293 -39 379 -71 192 -72 368 -246 488 -480 100 -195 141 -333 242 -809 44
-212 123 -495 137 -495 2 0 51 22 107 50 132 63 228 90 352 97 193 10 352 -57
459 -194 20 -26 36 -43 36 -39 0 4 -148 571 -330 1261 -181 690 -330 1256
-330 1258 0 2 28 -3 63 -11 63 -15 289 -23 302 -10 9 8 -204 444 -324 663
-239 435 -518 851 -761 1133 -167 194 -587 482 -1025 702 -860 433 -1845 640
-2755 579z"/>
<path d="M51585 53776 c-22 -8 -53 -29 -69 -47 -26 -29 -28 -37 -24 -98 6
-113 82 -249 272 -486 122 -152 270 -316 846 -940 669 -725 1160 -1315 1786
-2150 557 -741 997 -1412 1349 -2053 l67 -123 -95 -232 c-155 -376 -261 -656
-407 -1073 -413 -1179 -724 -2626 -909 -4217 -15 -136 -31 -250 -34 -253 -3
-3 -31 -12 -64 -21 -272 -70 -654 -412 -942 -842 -381 -568 -647 -1324 -726
-2061 -18 -164 -23 -283 -22 -550 0 -344 9 -498 51 -826 l23 -180 55 -79 c157
-226 273 -473 338 -719 27 -101 35 -142 56 -291 9 -61 9 -291 0 -360 -4 -27
-13 -84 -22 -126 l-15 -75 72 -210 c86 -253 213 -597 366 -999 298 -780 404
-1060 448 -1183 27 -73 49 -131 51 -129 2 2 -17 75 -42 163 -203 717 -347
1498 -399 2159 -4 44 -8 90 -10 103 -2 12 -7 86 -10 165 -4 78 -9 156 -11 172
-5 41 -5 914 0 945 2 14 7 84 10 155 4 72 9 148 11 170 2 22 9 94 15 160 13
144 37 346 50 435 126 837 339 1767 544 2380 l56 165 -5 -135 c-3 -74 -10
-236 -15 -360 -55 -1245 -33 -2795 61 -4280 46 -737 45 -736 41 -45 -5 631 3
964 34 1460 120 1951 515 3984 1220 6267 187 608 375 1175 767 2318 58 168
117 342 132 388 15 46 31 80 35 75 22 -25 200 -574 285 -878 l55 -199 -7 -186
c-15 -345 -5 -1590 12 -1620 1 -3 6 -72 9 -155 4 -82 9 -163 11 -180 2 -16 7
-86 10 -153 4 -68 8 -136 10 -150 2 -15 6 -72 10 -127 4 -55 9 -107 10 -116 2
-8 6 -58 10 -110 17 -245 22 -233 22 61 -1 271 6 483 18 620 2 25 7 79 10 120
6 74 32 317 40 375 37 258 57 379 65 388 12 14 54 -401 70 -698 5 -104 10
-294 10 -422 l0 -232 -96 -238 c-53 -131 -99 -240 -103 -243 -3 -3 -11 -23
-17 -45 -28 -100 -428 -1134 -484 -1250 -632 -1317 -1236 -2929 -1679 -4477
-152 -531 -248 -900 -421 -1613 -50 -209 -196 -888 -255 -1190 -20 -104 -40
-197 -43 -205 -3 -8 -6 -26 -8 -40 -1 -14 -23 -135 -48 -270 -342 -1838 -583
-3943 -706 -6170 -45 -821 -65 -1381 -96 -2605 -3 -143 -7 -261 -8 -262 -1 -1
-37 136 -79 305 -105 419 -172 729 -266 1222 -49 260 -134 807 -161 1035 -6
50 -13 106 -15 125 -6 49 -34 305 -40 365 -2 28 -7 82 -10 120 -4 39 -8 84
-10 100 -2 17 -6 66 -10 110 -3 44 -8 103 -10 130 -2 28 -7 109 -11 180 -3 72
-7 140 -9 152 -25 159 -25 1510 0 1793 1 19 6 91 9 160 4 69 9 150 11 180 6
77 14 180 20 280 3 47 8 101 10 120 4 31 16 170 30 345 9 109 32 356 40 425 2
19 7 64 10 100 3 36 10 99 15 140 5 41 11 95 14 120 33 281 91 685 145 995 16
94 37 215 46 270 10 55 21 104 25 108 15 17 340 -704 450 -998 69 -185 167
-478 215 -642 22 -73 41 -131 43 -129 4 4 -101 400 -174 661 -99 347 -306 982
-426 1304 -50 135 -50 136 -39 196 55 288 90 526 97 660 3 55 7 105 9 111 2 6
-1 51 -7 100 -18 166 -72 239 -178 238 -68 0 -165 -41 -179 -76 -6 -13 -46
-201 -90 -418 -44 -217 -105 -516 -136 -665 -31 -148 -62 -301 -70 -340 -7
-38 -46 -225 -85 -415 -39 -190 -80 -388 -90 -440 -10 -52 -55 -270 -99 -485
-167 -811 -235 -1143 -321 -1565 -49 -239 -121 -590 -160 -779 -38 -188 -70
-358 -70 -376 0 -53 133 -626 211 -910 9 -34 24 -49 100 -105 50 -36 143 -119
208 -185 283 -291 451 -660 480 -1055 4 -63 9 -334 10 -603 l2 -487 95 -263
c178 -489 276 -769 272 -773 -3 -2 -89 80 -191 183 -133 133 -187 182 -187
167 0 -13 55 -71 160 -168 88 -81 177 -164 199 -184 36 -34 45 -56 116 -262
l76 -226 3 -1684 c2 -927 7 -1772 11 -1877 l8 -193 100 0 100 0 -7 513 c-31
2533 -1 4380 104 6237 86 1523 242 3129 421 4350 17 113 33 223 35 245 22 174
160 1012 230 1395 63 343 155 809 221 1110 30 140 61 282 68 315 121 557 344
1422 539 2092 343 1172 804 2454 1238 3442 217 495 233 525 343 687 394 578
720 988 1537 1931 545 629 775 910 980 1198 637 895 972 1517 1005 1867 l6 68
241 129 c508 272 1313 683 2471 1264 347 174 805 407 1018 517 l388 201 352
45 c330 41 1005 105 1252 118 61 3 227 13 370 21 293 16 685 32 1135 45 313 9
656 22 1070 40 129 5 406 14 615 20 1022 29 1422 51 1815 101 369 46 587 138
618 260 30 118 -79 234 -343 366 -236 118 -491 200 -930 296 -270 60 -766 126
-1115 149 -302 20 -1216 17 -1440 -5 -431 -43 -724 -85 -1095 -156 -55 -10
-101 -18 -102 -17 -2 1 36 29 85 62 108 73 379 272 577 423 887 677 1592 1348
1906 1815 129 191 181 310 182 416 0 74 -24 117 -83 148 -88 46 -286 17 -520
-75 -87 -34 -351 -158 -452 -211 -4 -2 13 18 38 45 231 246 216 476 -35 573
-173 66 -523 66 -855 0 -336 -68 -722 -198 -1106 -374 -343 -157 -674 -366
-1079 -680 -153 -118 -511 -417 -577 -480 -10 -10 -92 -85 -264 -240 -103 -94
-564 -540 -950 -921 -452 -446 -488 -480 -645 -606 -1045 -835 -2005 -1781
-2911 -2870 -118 -140 -226 -261 -240 -268 -57 -26 -224 -140 -339 -232 -237
-189 -485 -438 -737 -739 -494 -589 -779 -1067 -1190 -1995 l-89 -200 6 80
c25 357 32 1117 15 1540 l-9 220 40 160 c167 669 419 1368 785 2175 94 209
966 1957 1338 2685 479 937 606 1251 606 1504 0 70 -4 95 -22 131 -152 301
-830 -135 -1451 -932 -411 -529 -797 -1218 -1030 -1839 -193 -514 -345 -1107
-448 -1748 l-33 -203 -57 283 c-31 156 -66 324 -77 373 l-21 90 84 230 c46
127 154 422 240 656 463 1255 468 1269 592 1635 190 563 265 860 267 1060 1
116 -12 163 -55 200 -39 32 -88 33 -154 1 -307 -144 -865 -891 -1376 -1841
-66 -121 -122 -219 -125 -218 -3 1 -37 79 -74 172 -221 546 -521 1134 -821
1609 -460 729 -1057 1419 -1739 2009 -587 508 -1292 931 -1746 1048 -125 32
-273 42 -329 21z m15290 -2905 c-6 -4 -100 -71 -210 -146 -804 -555 -1173
-842 -2315 -1795 -1101 -919 -1027 -860 -1132 -904 -248 -105 -718 -319 -1118
-508 -204 -97 -1123 -573 -1430 -741 -74 -41 -74 -41 -52 -12 13 16 121 133
242 260 925 976 1983 1882 3045 2607 77 53 169 110 204 128 232 116 862 370
1376 555 580 208 921 343 1190 469 212 100 214 101 200 87z m-4360 -3450 c-80
-78 -907 -703 -1307 -988 -333 -238 -1041 -713 -1062 -713 -2 0 -6 19 -10 43
-16 102 -71 166 -164 190 l-53 13 118 140 c110 131 214 250 427 492 86 97 97
106 186 149 383 182 908 389 1370 542 103 34 493 149 510 151 2 0 -4 -9 -15
-19z"/>
<path d="M36788 48950 c-152 -14 -236 -47 -390 -152 -129 -88 -178 -134 -178
-167 0 -15 9 -79 20 -142 11 -63 32 -179 46 -259 14 -80 27 -151 29 -158 3 -8
27 5 67 39 195 163 446 282 718 341 91 19 134 22 325 22 237 0 329 -12 493
-68 63 -22 72 -23 72 -9 0 52 -44 281 -57 295 -69 78 -603 233 -868 253 -163
12 -192 12 -277 5z"/>
<path d="M37170 48180 c-219 -35 -475 -176 -631 -348 -67 -74 -151 -203 -195
-297 -40 -86 -84 -244 -83 -295 1 -39 37 -147 38 -114 1 11 10 55 20 97 78
304 307 582 598 727 158 78 296 105 502 97 172 -6 282 -32 427 -101 169 -80
286 -175 389 -315 l60 -81 3 41 c4 55 -23 106 -107 205 -97 114 -213 203 -356
275 -169 83 -278 110 -465 115 -80 1 -170 -1 -200 -6z"/>
<path d="M33690 48147 c-259 -78 -659 -394 -899 -710 -88 -118 -87 -109 -42
-234 21 -59 45 -124 54 -144 l15 -36 118 116 c232 228 499 367 826 433 143 28
432 31 568 5 46 -9 86 -15 87 -13 3 3 -131 387 -174 498 l-26 67 -54 11 c-181
38 -360 40 -473 7z"/>
<path d="M41109 47758 c-4 -41 -1 -48 13 -48 10 0 18 1 18 3 0 1 -6 22 -14 47
l-13 45 -4 -47z"/>
<path d="M37162 47765 c-178 -39 -343 -167 -421 -327 -53 -107 -71 -182 -71
-288 0 -348 282 -630 630 -630 401 0 701 373 614 763 -75 340 -412 556 -752
482z"/>
<path d="M33760 47285 c-279 -56 -525 -257 -661 -540 -106 -221 -144 -507 -75
-564 10 -9 14 7 19 77 24 380 299 744 651 860 289 97 607 39 877 -159 71 -52
229 -211 229 -230 0 -7 2 -10 5 -7 3 3 -1 33 -9 67 -25 107 -160 250 -341 362
-204 126 -474 178 -695 134z"/>
<path d="M33891 46904 c-192 -52 -348 -220 -397 -429 -25 -109 -16 -266 23
-376 148 -426 643 -571 939 -275 180 180 225 481 109 731 -82 178 -227 303
-407 351 -68 18 -197 17 -267 -2z"/>
<path d="M59821 46414 c0 -11 3 -14 6 -6 3 7 2 16 -1 19 -3 4 -6 -2 -5 -13z"/>
<path d="M59811 46374 c0 -11 3 -14 6 -6 3 7 2 16 -1 19 -3 4 -6 -2 -5 -13z"/>
<path d="M42410 45509 c-340 -19 -740 -66 -1151 -135 -267 -44 -603 -109 -619
-119 -5 -3 -16 -29 -26 -58 -43 -131 -187 -445 -278 -605 -25 -45 -36 -76 -36
-105 0 -53 62 -708 96 -1007 57 -511 136 -983 196 -1170 84 -262 215 -533 381
-788 44 -68 76 -127 71 -131 -580 -507 -1095 -859 -1679 -1146 -632 -312
-1201 -478 -1800 -526 -184 -14 -602 -6 -764 15 -63 9 -162 25 -220 37 -494
100 -885 344 -1139 712 -29 41 -52 79 -52 84 0 4 30 24 67 43 369 194 760 582
1020 1015 50 83 203 376 203 388 0 2 -27 7 -61 11 -34 3 -116 17 -183 31 -613
124 -1253 461 -1811 953 l-80 70 -43 -66 c-62 -98 -157 -295 -186 -388 -49
-160 -61 -244 -60 -454 0 -157 4 -220 23 -323 19 -109 64 -293 86 -348 5 -13
-17 -29 -96 -74 -359 -200 -629 -448 -842 -770 -98 -149 -237 -429 -297 -596
l-45 -127 -55 -17 c-83 -26 -257 -106 -351 -161 -203 -118 -446 -333 -616
-544 -95 -118 -264 -368 -340 -505 -211 -378 -341 -685 -602 -1415 l-109 -305
3852 -5 c3711 -5 3853 -6 3906 -23 124 -42 211 -97 310 -197 99 -98 149 -177
183 -285 12 -38 247 -1236 247 -1258 0 -3 15 -8 33 -11 80 -15 150 -112 150
-207 -1 -65 -21 -111 -70 -155 l-35 -32 366 -1903 c202 -1047 371 -1927 377
-1955 l10 -51 112 -8 c62 -4 148 -11 192 -16 44 -5 136 -11 205 -14 188 -8
273 -14 400 -31 168 -21 614 -95 622 -103 10 -9 382 -2020 375 -2027 -7 -7
-130 42 -195 78 -50 28 -58 30 -122 24 -58 -6 -102 -22 -277 -102 -253 -116
-680 -327 -785 -389 -121 -71 -114 -75 132 -75 208 0 219 -1 1362 -140 634
-76 1214 -146 1288 -155 163 -19 188 -26 227 -68 44 -46 53 -69 54 -135 2 -99
-49 -180 -145 -230 l-51 -27 -7656 -3 -7656 -2 -64 -59 c-156 -143 -282 -376
-335 -621 -28 -125 -25 -387 5 -530 119 -563 550 -1149 1121 -1526 272 -179
536 -293 835 -360 60 -14 111 -27 112 -28 2 -2 -26 -38 -63 -82 -208 -250
-305 -439 -408 -800 -99 -346 -180 -686 -380 -1599 -365 -1660 -1038 -5018
-1575 -7870 -49 -258 -160 -845 -246 -1303 -87 -458 -154 -836 -150 -840 6 -7
2427 -24 2433 -17 7 7 831 1756 1239 2630 873 1869 2064 4494 2123 4679 61
189 91 530 125 1431 8 215 20 476 25 580 48 870 139 1313 300 1465 160 152
940 505 1890 857 l255 94 195 -13 c253 -17 1131 -17 1385 0 374 25 859 75
1118 116 l78 13 62 -51 c35 -28 150 -126 257 -217 107 -91 262 -219 344 -284
146 -114 497 -355 519 -355 12 0 3 -1189 -13 -1685 -75 -2316 -218 -4410 -456
-6665 -24 -234 -51 -490 -60 -570 -39 -376 -163 -1386 -239 -1944 -19 -143
-35 -268 -35 -278 0 -17 47 -18 1314 -18 l1314 0 16 43 c208 559 709 2043 931
2757 666 2142 1057 3857 1194 5240 53 534 56 586 57 1365 2 888 3 946 21 1100
53 464 192 828 558 1465 249 432 288 531 289 720 1 108 -2 124 -42 258 -24 79
-63 195 -88 259 -37 96 -42 118 -32 132 7 9 38 45 67 81 134 159 277 418 344
620 84 253 113 498 86 738 -44 410 -216 782 -494 1070 l-112 117 -57 305 c-68
371 -81 449 -74 456 11 10 1438 25 2778 29 879 3 1388 8 1450 15 52 6 115 13
140 16 111 13 407 69 525 99 407 106 750 270 999 476 378 314 558 672 628
1244 19 160 16 582 -6 765 -56 476 -177 921 -328 1200 -22 41 -66 149 -98 240
-79 224 -277 723 -353 890 -14 30 -77 174 -140 320 -142 329 -296 678 -484
1100 -900 2013 -1264 2872 -1543 3635 -50 138 -104 284 -119 325 -16 41 -27
76 -26 78 6 6 1666 -104 1863 -124 34 -4 62 -4 62 -1 0 3 -66 61 -147 128
-406 337 -987 732 -1476 1003 -333 184 -807 404 -1092 507 -94 34 -130 52
-165 85 -282 258 -592 407 -984 473 -85 15 -162 37 -290 85 -95 36 -231 85
-302 110 -71 24 -141 49 -156 55 l-27 10 64 123 c253 487 398 1021 424 1559
51 1039 -353 1971 -1030 2383 -307 186 -667 290 -1123 326 -148 11 -533 11
-746 -1z m2392 -10237 c163 -378 410 -948 548 -1267 404 -932 690 -1613 828
-1975 84 -219 81 -197 30 -211 -284 -76 -2248 -539 -2289 -539 -23 0 6 626 96
2105 50 818 69 1158 89 1576 l15 286 76 134 c42 74 126 234 188 356 62 123
114 223 117 223 3 0 139 -310 302 -688z"/>
<path d="M69265 45439 c-827 -21 -1775 -129 -2645 -300 -1763 -348 -3809
-1129 -5829 -2226 -95 -52 -175 -92 -177 -90 -3 2 15 55 40 118 112 290 224
650 267 854 31 150 34 380 5 439 -71 141 -232 86 -495 -169 -359 -348 -873
-1075 -1479 -2090 l-132 -220 -132 -84 c-511 -325 -1958 -1312 -1958 -1336 0
-2 98 60 218 139 405 266 735 466 1148 694 234 129 546 293 550 290 1 -2 -38
-75 -88 -163 -464 -823 -792 -1474 -1259 -2500 l-119 -260 -57 -34 c-269 -159
-811 -408 -1203 -552 -102 -38 -181 -69 -176 -69 10 0 698 198 1046 301 129
39 242 72 251 75 12 3 -28 -97 -128 -323 -79 -180 -173 -393 -207 -473 -379
-874 -439 -1006 -475 -1049 -613 -743 -1092 -1310 -1476 -1746 l-228 -260 269
270 c148 149 316 315 374 370 241 230 781 717 788 710 4 -4 -3 -21 -255 -590
-560 -1262 -1117 -2438 -1553 -3275 -56 -107 -97 -190 -92 -185 4 6 64 109
132 230 607 1081 1370 2300 2774 4433 l299 453 146 112 c163 126 419 319 439
331 16 10 12 0 -97 -232 -76 -161 -135 -294 -332 -752 -44 -102 -118 -270
-164 -375 -130 -299 -251 -584 -331 -780 -498 -1231 -800 -1892 -1142 -2496
-516 -912 -990 -1548 -1630 -2188 l-235 -234 209 179 c838 716 1108 958 1647
1479 158 152 287 274 287 271 0 -3 -9 -45 -21 -93 -11 -48 -31 -137 -44 -196
l-25 -108 -113 -127 c-637 -714 -1319 -1586 -1987 -2542 -40 -58 -89 -126
-107 -152 -19 -27 -33 -48 -30 -48 3 0 36 42 73 93 196 264 472 601 665 812
329 361 699 728 1030 1021 241 214 329 286 329 271 0 -8 -11 -68 -25 -133 -13
-66 -47 -238 -74 -384 -27 -146 -68 -357 -90 -470 -88 -451 -137 -730 -277
-1565 -25 -148 -65 -378 -89 -510 -24 -132 -53 -296 -66 -365 -12 -69 -25
-135 -30 -146 -19 -51 -748 -547 -1189 -809 -91 -54 -169 -102 -175 -108 -17
-16 559 296 1063 575 139 77 255 139 257 136 7 -6 -78 -414 -160 -773 -176
-769 -406 -1550 -663 -2246 -200 -542 -542 -1289 -800 -1749 -132 -235 452
731 810 1340 393 668 822 1457 1123 2065 388 785 566 1194 889 2045 11 29 35
48 137 113 967 607 1611 1051 2276 1567 346 269 379 295 758 619 567 484 1149
1067 1523 1525 350 427 491 616 867 1161 59 86 142 219 298 480 326 545 573
1084 672 1470 14 55 29 102 33 106 4 3 97 48 207 99 208 96 520 253 640 323
140 80 305 199 359 258 94 101 111 156 74 229 -19 37 -34 51 -88 78 -117 59
-230 76 -505 76 -237 0 -330 -7 -595 -45 -845 -121 -1914 -476 -2865 -951
-720 -360 -1498 -880 -2255 -1507 -221 -183 -523 -447 -665 -582 -217 -205
-320 -297 -327 -293 -4 3 -8 12 -8 21 0 9 -16 63 -36 120 l-35 104 78 96 c331
405 627 794 765 1008 245 379 311 492 464 790 392 764 671 1706 721 2435 17
250 3 462 -41 628 l-14 53 431 322 c663 496 963 733 1377 1087 820 701 1463
1323 1805 1745 184 228 286 389 330 525 24 72 25 169 1 204 -16 25 -16 28 2
54 43 60 163 293 200 387 128 323 140 533 36 624 -186 164 -610 -76 -1484
-839 -224 -195 -573 -504 -964 -854 -117 -105 -482 -445 -651 -607 -137 -131
-552 -509 -559 -509 -4 0 7 24 23 53 194 345 732 1413 931 1849 92 199 118
248 139 258 46 21 624 238 797 299 1328 467 2666 819 4399 1156 333 65 1384
259 1810 335 490 87 1239 207 2320 370 1211 183 1736 294 1978 416 65 34 133
98 147 139 64 192 -478 372 -1342 444 -228 20 -760 43 -893 39 -33 -1 -186 -5
-340 -9z m-7677 -11036 c-8 -10 -64 -76 -124 -148 -61 -71 -178 -213 -259
-315 -82 -102 -231 -284 -330 -405 -99 -121 -233 -285 -297 -365 -64 -80 -198
-244 -298 -365 -412 -498 -543 -659 -705 -861 -1124 -1402 -2000 -2375 -2854
-3172 -90 -84 -165 -151 -167 -149 -2 1 4 25 12 52 62 204 191 735 223 916 59
337 94 547 107 654 8 66 16 134 18 150 3 17 7 57 11 90 3 33 8 74 10 90 2 17
7 64 10 105 4 41 9 86 11 100 2 14 6 68 9 120 3 52 8 120 11 150 3 30 7 246 9
480 l3 425 184 123 c662 443 1452 894 2383 1359 570 286 2014 981 2039 982 5
1 2 -7 -6 -16z"/>
<path d="M37680 45338 c-63 -32 -64 -57 -6 -94 25 -16 46 -32 46 -35 0 -4
-123 -63 -272 -132 -150 -69 -500 -230 -778 -357 -675 -311 -721 -330 -900
-380 -71 -20 -108 -24 -230 -25 -161 0 -209 10 -338 71 -71 34 -187 135 -224
194 -14 22 -22 25 -75 24 -66 -1 -129 -26 -138 -55 -9 -27 53 -108 127 -169
241 -194 609 -232 1027 -104 131 40 258 93 596 249 171 79 454 209 630 290
176 81 434 199 573 263 144 67 258 125 264 135 13 25 2 36 -92 97 -92 58 -137
64 -210 28z"/>
<path d="M56685 40304 l-30 -26 33 22 c17 12 32 23 32 26 0 7 -4 5 -35 -22z"/>
<path d="M54343 35110 c0 -36 2 -50 4 -32 2 17 2 47 0 65 -2 17 -4 3 -4 -33z"/>
<path d="M54351 34954 c0 -11 3 -14 6 -6 3 7 2 16 -1 19 -3 4 -6 -2 -5 -13z"/>
<path d="M53671 31124 c0 -11 3 -14 6 -6 3 7 2 16 -1 19 -3 4 -6 -2 -5 -13z"/>
<path d="M40504 30054 c4 -16 9 -30 11 -32 1 -2 24 3 51 9 l49 13 -31 12 c-17
7 -44 16 -59 20 -27 7 -28 6 -21 -22z"/>
<path d="M40883 28852 c-123 -43 -133 -49 -133 -72 0 -54 12 -52 138 29 112
71 142 92 131 90 -2 0 -64 -21 -136 -47z"/>
<path d="M26578 11520 c-150 -31 -345 -105 -511 -193 -79 -42 -80 -43 -175
-182 -298 -434 -592 -774 -755 -873 -30 -18 -128 -59 -218 -91 -497 -178 -693
-296 -774 -466 -68 -144 -61 -337 20 -565 31 -85 118 -261 167 -335 l33 -50
230 3 c3075 38 5041 65 5046 70 18 18 -33 2146 -57 2417 l-6 70 -69 68 c-62
62 -71 67 -110 67 -39 0 -48 -5 -93 -53 -29 -29 -79 -103 -115 -167 -35 -63
-77 -132 -94 -152 -67 -83 -259 -223 -552 -403 -88 -54 -197 -122 -241 -151
l-82 -52 -23 51 c-44 95 -165 294 -236 389 -93 122 -217 246 -312 309 -100 67
-392 210 -507 248 -194 63 -392 78 -566 41z"/>
<path d="M38605 11516 c-126 -29 -282 -96 -449 -192 l-81 -47 -80 -135 c-248
-418 -533 -791 -674 -881 -26 -17 -124 -62 -217 -100 -537 -218 -686 -364
-686 -676 0 -126 17 -220 68 -368 40 -116 151 -346 170 -354 12 -4 3614 40
4307 53 l337 6 0 217 c0 478 -33 1867 -50 2121 -11 160 -20 181 -102 255 -83
76 -135 36 -248 -187 -63 -123 -84 -154 -149 -221 -82 -85 -227 -199 -441
-347 -74 -52 -161 -113 -192 -137 -31 -24 -60 -43 -65 -43 -4 1 -45 76 -89
168 -151 309 -297 494 -492 623 -139 91 -297 171 -429 216 -100 34 -118 37
-243 40 -89 2 -155 -2 -195 -11z"/>
</g>
</svg>
