<?xml version="1.0" standalone="no"?>
<!DOCTYPE svg PUBLIC "-//W3C//DTD SVG 20010904//EN"
 "http://www.w3.org/TR/2001/REC-SVG-20010904/DTD/svg10.dtd">
<svg version="1.0" xmlns="http://www.w3.org/2000/svg"
 width="2000.000000pt" height="2000.000000pt" viewBox="0 0 2000.000000 2000.000000"
 preserveAspectRatio="xMidYMid meet">

<g transform="translate(0.000000,2000.000000) scale(0.100000,-0.100000)"
fill="#000000" stroke="none">
<path d="M10205 13364 c-33 -8 -125 -46 -205 -85 l-145 -71 -130 -9 c-200 -14
-296 -45 -422 -135 -140 -100 -221 -257 -239 -463 -5 -57 -15 -93 -40 -143
-74 -148 -101 -333 -70 -486 43 -212 96 -233 215 -84 162 201 241 460 202 660
l-9 44 37 -35 c108 -104 343 -177 567 -177 98 0 138 -13 268 -88 133 -77 260
-99 386 -68 30 7 62 16 71 20 14 6 17 -5 22 -71 8 -102 30 -183 70 -263 39
-78 59 -93 87 -65 49 49 74 387 37 500 -16 49 -16 49 13 110 57 114 77 335 45
474 -48 202 -226 382 -431 435 -77 20 -246 20 -329 0z"/>
<path d="M9391 12034 c-51 -18 -110 -54 -130 -78 -16 -19 -19 -19 104 -21 72
-1 110 -8 190 -35 65 -21 121 -33 160 -34 l60 -1 3 45 c2 25 -2 62 -8 83 -9
32 -14 36 -26 26 -11 -9 -20 -9 -37 -1 -56 28 -257 38 -316 16z"/>
<path d="M10240 12039 c-25 -5 -57 -14 -71 -18 -15 -5 -33 -4 -42 1 -12 6 -19
3 -28 -14 -13 -24 -18 -123 -7 -134 15 -15 118 -2 217 26 84 24 122 30 202 30
55 0 99 4 99 8 0 16 -45 50 -100 78 -45 23 -70 28 -140 30 -47 2 -105 -2 -130
-7z"/>
<path d="M9380 11799 c-93 -10 -132 -21 -138 -38 -3 -10 2 -12 20 -8 14 4 58
10 98 13 l73 7 -16 -24 c-38 -54 -1 -133 62 -131 71 2 108 61 76 121 l-15 31
32 -6 c18 -4 59 -12 91 -19 65 -14 87 -2 35 19 -76 32 -209 46 -318 35z"/>
<path d="M10265 11795 c-80 -15 -155 -42 -155 -57 0 -11 12 -9 118 16 55 13
80 8 52 -9 -20 -12 -11 -80 13 -103 32 -30 87 -29 115 1 26 27 30 88 7 107 -8
7 -15 17 -15 22 0 8 76 5 159 -8 24 -4 32 -2 29 8 -5 16 -111 36 -193 36 -33
0 -91 -6 -130 -13z"/>
<path d="M6380 5339 c-142 -13 -242 -62 -359 -174 -132 -127 -219 -307 -243
-508 -36 -288 107 -626 383 -907 434 -441 1118 -769 2394 -1148 149 -45 290
-86 315 -92 l45 -12 -120 -113 c-105 -99 -118 -115 -106 -129 18 -21 12 -21
-114 3 -214 42 -378 55 -665 55 -489 -1 -677 -35 -752 -138 -27 -38 -29 -46
-26 -108 4 -81 37 -135 112 -185 116 -79 402 -120 756 -110 292 8 569 55 790
132 41 14 101 28 133 30 109 8 640 121 1105 236 l92 23 108 -23 c261 -56 632
-123 692 -126 39 -2 103 -15 160 -34 106 -35 334 -83 485 -102 148 -19 543
-17 690 4 228 32 366 82 420 153 112 147 49 294 -144 338 -166 38 -599 48
-883 21 -139 -13 -406 -54 -467 -71 -21 -6 -23 -4 -17 11 5 14 -4 30 -34 60
l-41 42 78 23 c353 103 998 333 1310 466 796 339 1315 759 1493 1207 57 144
73 219 73 362 0 160 -20 244 -94 395 -45 89 -65 117 -143 196 -74 75 -106 100
-168 129 -224 107 -441 77 -853 -115 -49 -23 -142 -64 -205 -92 -231 -99 -499
-252 -880 -502 -283 -185 -806 -536 -998 -669 l-154 -107 -572 0 -572 0 -161
108 c-473 318 -1105 726 -1411 911 -190 115 -419 234 -577 299 -66 28 -186 80
-267 115 -274 122 -442 162 -608 146z"/>
</g>
</svg>
